<svg xmlns="http://www.w3.org/2000/svg" viewBox="0 0 64 64" width="64px" height="64px"><path fill="#f98cb3" d="M31.002,36c13.217,0,26.157,1.418,29.809,1.853l0.196,0.025c0.298,0.038,0.588,0.074,0.85,0.111 c0.027,0.003,0.123,0.01,0.163,0.011c0.29,0,0.587-0.147,0.774-0.395c0.219-0.288,0.268-0.673,0.126-1.005v-0.002 c-1.085-2.568-3.033-7.621-3.053-7.672l-0.149-0.386l3.07-7.124c0.139-0.318,0.109-0.675-0.076-0.962 C62.526,20.171,62.214,20,61.875,20H2.025C1.46,20,1,20.448,1,21v16c0,0.295,0.131,0.571,0.358,0.759 C1.546,37.915,1.781,38,2.025,38c0.029-0.002,0.075-0.008,0.163-0.019l0.81-0.119C6.207,37.426,17.711,36,31.002,36z"/><path fill="#8d6c9f" d="M63.841 36.21c-1.091-2.584-3.041-7.643-3.041-7.643.527-1.193 3.032-6.757 3.032-6.757.112-.255.167-.525.168-.795.002-.386-.107-.769-.324-1.105C63.305 19.341 62.679 19 62 19H2.025C.908 19 0 19.897 0 21v16c0 .594.264 1.152.722 1.53C1.085 38.833 1.549 39 2.025 39c.091 0 .092 0 1.108-.137l-.001-.01C6.424 38.406 17.812 37 31.002 37c13.109 0 25.843 1.388 29.69 1.846.359.045.712.09 1.024.133C61.764 38.987 61.957 39 62 39c.62 0 1.215-.295 1.591-.79C64.025 37.638 64.121 36.87 63.841 36.21zM62 21l-3.367 7.51c0 0 2.26 5.86 3.364 8.482-.18-.023-2.428-.299-2.865-.362-.306-.846-1.883-4.532-1.883-4.532s-1.548 3.359-1.877 4.162l-2.603-.315c.391-.854 3.24-7.437 3.24-7.437S53.395 21.937 53.019 21l2.743.001c.283.672 1.692 4.195 1.692 4.195s1.529-3.494 1.802-4.196H62zM40 35.196V21l2.629.003c-.003.004-.004.009-.004.017l.045 11.714L46 32.869c0 .002 0 .004 0 .006v2.639C44.092 35.392 42.075 35.282 40 35.196zM48 21h2.625v14.848c-.844-.068-1.72-.134-2.625-.199V21zM13 21l7 .006 0 .014c0 0 0 0 0 0v2.484l-4.56 0v3.637L19 27.146v2.462h-3.56v3.355c0 0 4.581-.412 4.56-.413v2.751c-2.525.134-4.878.302-7 .48V21zM22 23.513c0 0 0-2.511 0-2.513l7 0v2.533h-2.367v11.516c-.766.017-1.519.039-2.266.064v-11.58L22 23.513zM4.605 21l3.788 9.052L8.418 21H11v14.959c-1.078.1-2.08.2-2.994.297l-3.381-8.14v8.528C3.221 36.818 2.31 36.948 2 36.993V21H4.605zM31 35l0-14h7l-.002 2.605h-4.496v3.725l3.374.037L36.874 30h-3.372v5h-2.5C31.002 35 31.001 35 31 35zM56.052 45.348c-.033 0-.066-.002-.101-.005-.55-.055-.95-.545-.896-1.095l.199-1.99c.055-.55.543-.945 1.095-.896.55.055.95.545.896 1.095l-.199 1.99C56.994 44.963 56.56 45.348 56.052 45.348zM51.249 44.909c-.027 0-.056-.001-.083-.003-.551-.046-.96-.529-.915-1.08l.165-1.992c.046-.551.521-.957 1.08-.915.55.046.959.529.914 1.08l-.165 1.993C52.201 44.514 51.764 44.909 51.249 44.909zM46.439 44.548c-.022 0-.045-.001-.067-.002-.551-.037-.968-.513-.932-1.064l.132-1.995c.036-.551.514-.959 1.064-.932.551.037.968.513.932 1.064l-.132 1.995C47.401 44.143 46.962 44.548 46.439 44.548zM41.625 44.273c-.017 0-.033 0-.049-.001-.552-.027-.978-.496-.951-1.047l.097-1.998c.027-.553.536-.978 1.047-.951.552.027.978.496.951 1.047l-.097 1.998C42.597 43.857 42.155 44.273 41.625 44.273zM36.81 44.088c-.01 0-.02 0-.029 0-.552-.016-.987-.477-.972-1.028l.057-1.999c.016-.552.493-.945 1.028-.972.552.016.987.477.972 1.028l-.057 1.999C37.793 43.658 37.349 44.088 36.81 44.088zM27.178 44.041c-.544 0-.989-.435-1-.98l-.039-2c-.011-.552.429-1.009.98-1.02.007 0 .014 0 .02 0 .544 0 .989.435 1 .98l.039 2c.011.552-.429 1.009-.98 1.02C27.19 44.041 27.184 44.041 27.178 44.041zM22.363 44.191c-.532 0-.975-.42-.998-.957l-.087-1.998c-.024-.552.403-1.018.955-1.042.582-.03 1.02.404 1.043.956l.087 1.998c.024.552-.403 1.018-.956 1.042C22.393 44.191 22.378 44.191 22.363 44.191zM17.552 44.453c-.522 0-.963-.406-.997-.936l-.129-1.996c-.035-.551.383-1.026.934-1.063.548-.018 1.026.383 1.063.934l.129 1.996c.035.551-.383 1.026-.934 1.063C17.596 44.452 17.573 44.453 17.552 44.453zM12.747 44.813c-.514 0-.95-.393-.995-.914l-.172-1.992c-.048-.55.36-1.035.91-1.082.56-.06 1.034.359 1.082.91l.172 1.992c.048.55-.36 1.035-.91 1.082C12.805 44.813 12.775 44.813 12.747 44.813zM7.951 45.279c-.504 0-.938-.38-.993-.893l-.215-1.988c-.06-.549.338-1.042.887-1.102.551-.06 1.042.338 1.102.887l.215 1.988c.06.549-.338 1.042-.887 1.102C8.023 45.277 7.986 45.279 7.951 45.279zM32 44c-.553 0-1-.447-1-1v-2c0-.553.447-1 1-1s1 .447 1 1v2C33 43.553 32.553 44 32 44z"/></svg>