<svg xmlns="http://www.w3.org/2000/svg" viewBox="0 0 100 100" width="50px" height="50px"><path fill="#ee3e54" d="M13 27A2 2 0 1 0 13 31A2 2 0 1 0 13 27Z"/><path fill="#f1bc19" d="M77 12A1 1 0 1 0 77 14A1 1 0 1 0 77 12Z"/><path fill="#fce0a2" d="M50 13A37 37 0 1 0 50 87A37 37 0 1 0 50 13Z"/><path fill="#f1bc19" d="M83 11A4 4 0 1 0 83 19A4 4 0 1 0 83 11Z"/><path fill="#ee3e54" d="M87 22A2 2 0 1 0 87 26A2 2 0 1 0 87 22Z"/><path fill="#fbcd59" d="M81 74A2 2 0 1 0 81 78 2 2 0 1 0 81 74zM15 59A4 4 0 1 0 15 67 4 4 0 1 0 15 59z"/><path fill="#ee3e54" d="M25 85A2 2 0 1 0 25 89A2 2 0 1 0 25 85Z"/><path fill="#fff" d="M18.5 51A2.5 2.5 0 1 0 18.5 56A2.5 2.5 0 1 0 18.5 51Z"/><path fill="#f1bc19" d="M21 66A1 1 0 1 0 21 68A1 1 0 1 0 21 66Z"/><path fill="#fff" d="M80 33A1 1 0 1 0 80 35A1 1 0 1 0 80 33Z"/><g><path fill="#60be92" d="M50 25.625A24.25 24.25 0 1 0 50 74.125A24.25 24.25 0 1 0 50 25.625Z"/><path fill="#472b29" d="M50,74.825c-13.757,0-24.95-11.192-24.95-24.95S36.243,24.925,50,24.925s24.95,11.192,24.95,24.95 S63.757,74.825,50,74.825z M50,26.325c-12.985,0-23.55,10.564-23.55,23.55S37.015,73.425,50,73.425s23.55-10.564,23.55-23.55 S62.985,26.325,50,26.325z"/></g><g><path fill="#472b29" d="M69.424,44.625c-0.214,0-0.412-0.139-0.478-0.354c-0.088-0.287-0.183-0.571-0.284-0.853 c-0.392-1.094-0.886-2.159-1.47-3.169c-0.139-0.238-0.057-0.545,0.182-0.683c0.239-0.142,0.545-0.057,0.683,0.183 c0.614,1.061,1.134,2.182,1.546,3.331c0.106,0.297,0.206,0.595,0.298,0.897c0.081,0.264-0.067,0.544-0.332,0.625 C69.521,44.618,69.472,44.625,69.424,44.625z"/></g><g><path fill="#472b29" d="M50,70.75c-11.511,0-20.875-9.337-20.875-20.813S38.489,29.125,50,29.125 c5.975,0,11.674,2.56,15.636,7.023c0.299,0.337,0.588,0.685,0.865,1.041c0.169,0.218,0.13,0.531-0.087,0.701 c-0.218,0.172-0.532,0.131-0.702-0.088c-0.264-0.339-0.54-0.669-0.824-0.99c-3.772-4.25-9.199-6.688-14.888-6.688 c-10.959,0-19.875,8.888-19.875,19.813S39.041,69.75,50,69.75s19.875-8.888,19.875-19.813c0-0.995-0.075-1.996-0.222-2.973 c-0.041-0.272,0.147-0.527,0.42-0.568c0.28-0.039,0.528,0.147,0.569,0.42c0.154,1.025,0.233,2.076,0.233,3.121 C70.875,61.413,61.511,70.75,50,70.75z"/></g><g><path fill="#fff" d="M64.381 48.65c-.384 0-.774-.093-1.135-.291-10.939-5.997-25.72-2.603-25.868-2.568-1.276.3-2.548-.487-2.848-1.758-.3-1.272.487-2.547 1.759-2.847.677-.161 16.714-3.839 29.232 3.023 1.146.629 1.566 2.067.938 3.212C66.028 48.207 65.217 48.65 64.381 48.65zM61.757 55.915c-.329 0-.662-.086-.966-.266-9.983-5.936-22.242-2.633-22.365-2.598-1.009.275-2.051-.31-2.331-1.315-.281-1.006.305-2.048 1.31-2.331.563-.158 13.918-3.791 25.321 2.991.899.534 1.194 1.696.659 2.595C63.032 55.585 62.403 55.915 61.757 55.915zM59.362 62.188c-.247 0-.497-.064-.724-.2-8.939-5.316-19.828-2.351-19.938-2.32-.752.214-1.538-.228-1.751-.984-.212-.755.228-1.539.984-1.751.493-.138 12.181-3.32 22.157 2.614.674.4.896 1.272.495 1.946C60.318 61.94 59.847 62.188 59.362 62.188z"/></g></svg>